<?xml version="1.0" encoding="UTF-8" standalone="no"?>
<!-- Created with Inkscape (http://www.inkscape.org/) -->

<svg
   width="1920.0px"
   height="1080.0px"
   viewBox="0 0 1920.0 1080.0"
   version="1.1"
   id="SVGRoot"
   sodipodi:docname="logo_with_bg.svg"
   inkscape:version="1.2.2 (b0a8486541, 2022-12-01)"
   xmlns:inkscape="http://www.inkscape.org/namespaces/inkscape"
   xmlns:sodipodi="http://sodipodi.sourceforge.net/DTD/sodipodi-0.dtd"
   xmlns="http://www.w3.org/2000/svg"
   xmlns:svg="http://www.w3.org/2000/svg">
  <sodipodi:namedview
     id="namedview1895"
     pagecolor="#ffffff"
     bordercolor="#000000"
     borderopacity="0.25"
     inkscape:showpageshadow="2"
     inkscape:pageopacity="0.0"
     inkscape:pagecheckerboard="0"
     inkscape:deskcolor="#d1d1d1"
     inkscape:document-units="px"
     showgrid="false"
     inkscape:zoom="0.50772211"
     inkscape:cx="972.97318"
     inkscape:cy="442.17101"
     inkscape:window-width="1920"
     inkscape:window-height="1013"
     inkscape:window-x="0"
     inkscape:window-y="32"
     inkscape:window-maximized="1"
     inkscape:current-layer="layer1" />
  <defs
     id="defs1890" />
  <g
     inkscape:label="Layer 1"
     inkscape:groupmode="layer"
     id="layer1">
    <rect
       style="fill:#f4d7d7;stroke:#000000;stroke-width:0.707605"
       id="rect2960"
       width="1920"
       height="540.76123"
       x="0"
       y="0"
       inkscape:export-filename="logo - line format.png"
       inkscape:export-xdpi="95.950027"
       inkscape:export-ydpi="95.950027" />
    <g
       id="g3206"
       transform="matrix(2.6229737,0,0,2.6229737,-1411.2675,-1061.5915)">
      <g
         id="g3194">
        <g
           id="SvgjsG1007"
           featurekey="symbolFeature-0"
           transform="matrix(0.93697546,0,0,0.93697546,856.76734,429.17779)"
           fill="#be3144">
          <g
             id="g13">
            <rect
               x="5.625"
               y="71.990257"
               width="13.997782"
               height="13.997782"
               id="rect3" />
            <polygon
               points="75.581711,71.990257 61.583931,71.990257 61.583931,57.992474 47.586151,57.992474 47.586151,71.990257 47.586151,85.988037 61.583931,85.988037 75.581711,85.988037 "
               id="polygon5" />
            <polygon
               points="61.583931,19.474442 61.583931,9.1450434 47.586151,9.1450434 47.586151,19.474442 47.586151,23.142826 33.588367,23.142826 33.588367,37.140606 47.586151,37.140606 47.586151,51.13839 61.583931,51.13839 61.583931,23.142826 "
               id="polygon7" />
            <polygon
               points="68.212753,50.993584 68.212753,64.991364 82.210533,64.991364 82.210533,78.989143 96.208313,78.989143 96.208313,50.993584 96.208313,47.325199 96.208313,36.995804 82.210533,36.995804 82.210533,47.325199 82.210533,50.993584 "
               id="polygon9" />
            <polygon
               points="26.669941,57.992474 26.669941,71.990257 26.669941,85.988037 40.667721,85.988037 40.667721,71.990257 40.667721,57.992474 40.667721,43.994694 26.703455,43.994694 26.669941,43.994694 12.705673,43.994694 12.705673,57.992474 "
               id="polygon11" />
          </g>
        </g>
      </g>
      <g
         id="SvgjsG1008"
         featurekey="nameFeature-0"
         transform="matrix(1.1793358,0,0,1.1793358,726.27382,515.62667)"
         fill="#be3144">
        <path
           d="m 4.2773,40 q -0.8007812,0 -1.3671875,-0.566406 -0.5664062,-0.566407 -0.56641,-1.3672 v -12.07 q 0,-0.800781 0.5664063,-1.376953 0.5664062,-0.576172 1.3672,-0.57617 H 14.746309 q 1.914062,0 3.007812,-1.210938 1.015625,-1.230469 1.015625,-2.871094 0,-0.761718 -0.351562,-1.728515 -0.351563,-0.966797 -1.2207,-1.6699 -0.869138,-0.703103 -2.4512,-0.70313 h -2.2461 q -0.800781,0 -1.376953,-0.566406 -0.576172,-0.566407 -0.57617,-1.3672 2e-6,-0.800794 0.57617,-1.3672 0.576168,-0.566407 1.377,-0.56641 h 2.2461 q 2.597656,0 4.355468,1.162109 1.757813,1.162109 2.6465,2.9883 0.888688,1.82619 0.88867,3.8184 0,3.066406 -1.972656,5.429687 -0.507812,0.585938 -1.308594,1.171875 -0.800781,0.585938 -1.9434,0.97656 -1.142618,0.390623 -2.666,0.39063 H 6.2307194 v 10.137 q 0,0.800782 -0.5664063,1.367188 -0.5664062,0.566406 -1.3867,0.56641 z m 0,-24.141 q -0.8007812,0 -1.3671875,-0.566406 -0.5664062,-0.566406 -0.56641,-1.3672 -3.7e-6,-0.800794 0.56641,-1.3672 0.5664138,-0.566406 1.3672,-0.56641 0.8203125,0 1.3867188,0.566406 0.5664062,0.566406 0.56641,1.3672 3.7e-6,0.800794 -0.56641,1.3672 -0.5664138,0.566406 -1.3867,0.56641 z M 42.767266,40 q -1.972657,0 -3.857422,-0.673828 -1.884766,-0.673828 -3.3887,-1.9922 -1.503935,-1.318372 -2.4023,-3.2715 -0.898366,-1.953128 -0.89844,-4.5313 v -15.605 q 0,-0.800781 0.566406,-1.367188 0.566406,-0.566406 1.3672,-0.56641 0.800794,-3e-6 1.3672,0.56641 0.566406,0.566414 0.56641,1.3672 v 15.605 q 0,2.285157 0.976562,3.740235 0.976563,1.455078 2.5098,2.1484 1.533238,0.693322 3.1934,0.69336 1.660163,3.8e-5 3.1836,-0.69336 1.523438,-0.693398 2.5,-2.1484 0.976563,-1.455002 0.97656,-3.7402 v -7.4023 q 0,-0.800782 0.566407,-1.367188 0.566406,-0.566406 1.3672,-0.56641 0.800793,-4e-6 1.3672,0.56641 0.566406,0.566414 0.56641,1.3672 v 7.4023 q 0,4.824219 -3.339844,7.851563 -3.105469,2.617187 -7.1875,2.617187 z m 8.594,-24.141 q -0.800782,0 -1.367188,-0.566406 -0.566406,-0.566406 -0.56641,-1.3672 -4e-6,-0.800794 0.56641,-1.3672 0.566414,-0.566406 1.3672,-0.56641 0.800786,-4e-6 1.3672,0.56641 0.566414,0.566414 0.56641,1.3672 -4e-6,0.800786 -0.56641,1.3672 -0.566406,0.566414 -1.3672,0.56641 z M 81.472781,40 h -14.375 q -1.113281,0 -2.001953,-0.585938 -0.888672,-0.585937 -1.377,-1.601599 -0.371094,-0.839844 -0.371094,-1.621094 0,-1.25 0.898438,-2.363281 l 15.098,-17.988 h -6.6016 q -0.800781,0 -1.367188,-0.556641 -0.566406,-0.556641 -0.56641,-1.377 0,-0.800781 0.566407,-1.367188 0.566406,-0.566406 1.3672,-0.56641 h 6.8555 q 1.09375,0 2.001953,0.585938 0.908203,0.585937 1.3965,1.6016 0.351562,0.820312 0.351562,1.621094 0,1.25 -0.878906,2.363281 l -15.098,17.969 h 14.102 q 0.800781,0 1.367187,0.576172 0.566407,0.576172 0.56641,1.377 0,0.78125 -0.566406,1.357422 -0.566406,0.576172 -1.3672,0.57617 z m -16.2501,-24.141 q -0.800781,0 -1.376953,-0.566406 -0.576172,-0.566406 -0.57617,-1.3672 2e-6,-0.800794 0.57617,-1.3672 0.576168,-0.566406 1.377,-0.56641 0.800832,-4e-6 1.3672,0.56641 0.566368,0.566414 0.56641,1.3672 4.2e-5,0.800786 -0.56641,1.3672 -0.566452,0.566414 -1.3672,0.56641 z M 111.77942,40 H 97.404422 q -1.113281,0 -2.001953,-0.585938 -0.888672,-0.585937 -1.377,-1.601599 -0.371094,-0.839844 -0.371094,-1.621094 0,-1.25 0.898438,-2.363281 l 15.097997,-17.988 h -6.6016 q -0.80078,0 -1.36719,-0.556641 -0.5664,-0.556641 -0.56641,-1.377 0,-0.800781 0.56641,-1.367188 0.56641,-0.566406 1.3672,-0.56641 h 6.8555 q 1.09375,0 2.00195,0.585938 0.90821,0.585937 1.3965,1.6016 0.35157,0.820312 0.35157,1.621094 0,1.25 -0.87891,2.363281 l -15.097999,17.969 h 14.101999 q 0.80078,0 1.36719,0.576172 0.5664,0.576172 0.56641,1.377 0,0.78125 -0.56641,1.357422 -0.5664,0.576172 -1.3672,0.57617 z M 95.529322,15.859 q -0.800781,0 -1.376953,-0.566406 -0.576172,-0.566406 -0.57617,-1.3672 2e-6,-0.800794 0.57617,-1.3672 0.576168,-0.566406 1.377,-0.56641 0.800832,-4e-6 1.3672,0.56641 0.566368,0.566414 0.56641,1.3672 4.2e-5,0.800786 -0.56641,1.3672 -0.566452,0.566414 -1.3672,0.56641 z M 139.91806,40 q 0.80078,0 1.36719,-0.566406 0.56641,-0.566407 0.56641,-1.3672 0,-0.820313 -0.56641,-1.386719 -0.5664,-0.566406 -1.3672,-0.56641 h -7.8906 q -4.43359,0 -4.47265,-6.386719 v -15.801 q 0,-0.800781 -0.56641,-1.367187 -0.56641,-0.566406 -1.3672,-0.56641 -0.80079,-4e-6 -1.3672,0.56641 -0.56641,0.566414 -0.56641,1.3672 v 15.801 q 0,4.296875 1.81641,6.972656 2.32422,3.300781 6.52343,3.300781 h 7.8906 z m 29.25236,0 h -15.41 q -0.80078,0 -1.36719,-0.566406 -0.5664,-0.566407 -0.56641,-1.3672 0,-0.820313 0.56641,-1.386719 0.56641,-0.566406 1.3672,-0.56641 h 15.41 q 0.80078,0 1.36719,0.566406 0.5664,0.566407 0.56641,1.3867 0,0.800782 -0.56641,1.367188 -0.5664,0.566406 -1.3672,0.56641 z m 0,-24.141 h -15.41 q -0.80078,0 -1.36719,-0.566406 -0.5664,-0.566406 -0.56641,-1.3672 0,-0.800794 0.56641,-1.3672 0.56642,-0.566406 1.3672,-0.56641 h 15.41 q 0.80079,0 1.36719,0.566406 0.56641,0.566406 0.56641,1.3672 1e-5,0.800794 -0.56641,1.3672 -0.56641,0.566406 -1.3672,0.56641 z m 0,12.071 h -15.41 q -0.80078,0 -1.36719,-0.566406 -0.5664,-0.566407 -0.56641,-1.3672 0,-0.800794 0.56641,-1.377 0.56642,-0.576206 1.3672,-0.57617 h 15.41 q 0.80079,0 1.36719,0.576172 0.56641,0.576171 0.56641,1.377 1e-5,0.800828 -0.56641,1.3672 -0.56641,0.566371 -1.3672,0.56641 z M 196.72275,40 q 0.80078,0 1.36719,-0.566406 0.5664,-0.566407 0.56641,-1.3672 0,-0.820313 -0.56641,-1.386719 -0.56641,-0.566406 -1.3672,-0.56641 h -7.8906 q -4.43359,0 -4.47266,-6.386719 v -15.801 q 0,-0.800781 -0.5664,-1.367187 -0.56641,-0.566406 -1.3672,-0.56641 -0.8008,-4e-6 -1.3672,0.56641 -0.56641,0.566414 -0.56641,1.3672 v 15.801 q 0,4.296875 1.8164,6.972656 2.32422,3.300781 6.52344,3.300781 h 7.8906 z m 13.84166,0 q 0.80078,0 1.36719,-0.566406 0.5664,-0.566407 0.56641,-1.3672 v -24.141 q 0,-0.800781 -0.56641,-1.367188 -0.56641,-0.566406 -1.3672,-0.56641 -0.80079,-3e-6 -1.3672,0.56641 -0.56641,0.566414 -0.56641,1.3672 v 24.141 q 0,0.800781 0.56641,1.367188 0.5664,0.566406 1.3672,0.56641 z m 21.67381,0 q -1.44531,0 -2.89063,-0.292969 -3.76953,-0.820312 -5.95703,-3.183594 -0.50781,-0.566406 -0.50781,-1.269531 0,-0.05859 0.0195,-0.478515 0.0195,-0.419922 0.60547,-0.98633 0.60547,-0.507813 1.34766,-0.507813 0.0195,0 0.42968,0.0293 0.41016,0.0293 0.95703,0.61523 1.44532,1.464844 3.90625,1.972656 1.05469,0.214844 2.07032,0.214844 1.38672,0 2.73437,-0.410156 2.94922,-0.957032 2.94922,-3.632813 0,-1.386719 -1.24023,-2.216797 -1.24024,-0.830078 -4.7754,-1.7285 -1.64063,-0.410156 -3.24219,-0.9375 -5.97656,-1.992187 -5.97656,-7.1875 0,-3.90625 3.04687,-6.132812 2.61719,-1.894531 6.67969,-1.894531 0.82031,0.05859 1.36719,0.615234 0.54687,0.556641 0.54688,1.377 -0.0195,0.820312 -0.57618,1.347656 -0.55664,0.527344 -1.377,0.52734 h -0.21484 q -1.875,0 -3.56445,0.800781 -1.68945,0.800782 -2.0215,2.793 l -0.0195,0.54688 q 0,1.699219 1.41602,2.626954 1.41601,0.927734 4.9316,1.7871 1.58203,0.390625 3.10547,0.898437 5.78125,1.914063 5.78125,6.757813 0,0.429687 -0.0391,0.878906 -0.60547,4.707031 -5.5664,6.464844 -1.875,0.605468 -3.92578,0.605468 z m 7.305,-21.387 q -0.80078,0 -1.36719,-0.566406 -0.56641,-0.566407 -0.56641,-1.3672 0,-0.800794 0.56641,-1.3672 0.56641,-0.566407 1.3672,-0.56641 0.82031,0 1.38672,0.566406 0.56641,0.566406 0.56641,1.3672 0,0.800794 -0.56641,1.3672 -0.56641,0.566406 -1.3867,0.56641 z M 260.8847,40 q -0.80078,0 -1.36718,-0.566406 -0.56641,-0.566407 -0.56641,-1.3672 v -24.141 q 0,-0.800781 0.5664,-1.367188 0.56641,-0.566406 1.3672,-0.56641 h 8.3984 q 0.80078,0 1.36719,0.566407 0.56641,0.566406 0.56641,1.3672 0,0.800793 -0.56641,1.3672 -0.56641,0.566406 -1.3672,0.56641 h -6.4648 v 22.207 q 0,0.800781 -0.56641,1.367187 -0.5664,0.566406 -1.3672,0.56641 z m -8.3788,-24.141 q -0.80078,0 -1.36718,-0.566406 -0.56641,-0.566406 -0.56641,-1.3672 -10e-6,-0.800794 0.56641,-1.3672 0.56641,-0.566406 1.3672,-0.56641 0.80078,-4e-6 1.3672,0.56641 0.56641,0.566414 0.56641,1.3672 -1e-5,0.800786 -0.56641,1.3672 -0.56641,0.566414 -1.3672,0.56641 z M 289.58978,40 q -1.44531,0 -2.89062,-0.292969 -3.76954,-0.820312 -5.95704,-3.183594 -0.50781,-0.566406 -0.50781,-1.269531 0,-0.05859 0.0195,-0.478515 0.0195,-0.419922 0.60547,-0.98633 0.60547,-0.507813 1.34766,-0.507813 0.0195,0 0.42969,0.0293 0.41015,0.0293 0.95703,0.61523 1.44531,1.464844 3.90625,1.972656 1.05468,0.214844 2.07031,0.214844 1.38672,0 2.73437,-0.410156 2.94922,-0.957032 2.94922,-3.632813 0,-1.386719 -1.24023,-2.216797 -1.24024,-0.830078 -4.7754,-1.7285 -1.64063,-0.410156 -3.24219,-0.9375 -5.97656,-1.992187 -5.97656,-7.1875 0,-3.90625 3.04687,-6.132812 2.61719,-1.894531 6.67969,-1.894531 0.82031,0.05859 1.36719,0.615234 0.54687,0.556641 0.54688,1.377 -0.0195,0.820312 -0.57617,1.347656 -0.55664,0.527344 -1.377,0.52734 h -0.21484 q -1.875,0 -3.56446,0.800781 -1.68945,0.800782 -2.0215,2.793 l -0.0195,0.54688 q 0,1.699219 1.41602,2.626954 1.41601,0.927734 4.9316,1.7871 1.58203,0.390625 3.10547,0.898437 5.78125,1.914063 5.78125,6.757813 0,0.429687 -0.0391,0.878906 -0.60547,4.707031 -5.56641,6.464844 -1.875,0.605468 -3.92578,0.605468 z m 7.305,-21.387 q -0.80078,0 -1.36719,-0.566406 -0.5664,-0.566407 -0.56641,-1.3672 0,-0.800794 0.56641,-1.3672 0.56642,-0.566407 1.3672,-0.56641 0.82032,0 1.38672,0.566406 0.56641,0.566406 0.56641,1.3672 1e-5,0.800794 -0.56641,1.3672 -0.56641,0.566406 -1.3867,0.56641 z"
           id="path16" />
      </g>
    </g>
    <text
       xml:space="preserve"
       style="font-style:normal;font-variant:normal;font-weight:normal;font-stretch:normal;font-size:53.3333px;font-family:ROCKETWILDNESS;-inkscape-font-specification:'ROCKETWILDNESS, Normal';font-variant-ligatures:normal;font-variant-caps:normal;font-variant-numeric:normal;font-variant-east-asian:normal;white-space:pre;inline-size:1248.35;display:inline;fill:#f4d7d7;stroke:#000000"
       x="682.54303"
       y="490.83075"
       id="text3354"
       transform="translate(-326.72812,9.7623608)"><tspan
         x="682.54303"
         y="490.83075"
         id="tspan3616">Project by KrishnaraJ and Parth</tspan></text>
  </g>
</svg>
