<svg height="125.05438746478589" width="350" style="width: 350px; height: 125.054px; position: absolute; top: 50%; left: 50%; transform: translate(-50%, -50%) scale(1); z-index: 0; cursor: pointer;"><defs id="SvgjsDefs1001"></defs><g id="SvgjsG1007" featurekey="symbolFeature-0" transform="matrix(0.9369754561299607,0,0,0.9369754561299607,127.72951305926897,-8.568681185846058)" fill="#be3144"><g xmlns="http://www.w3.org/2000/svg"><rect x="5.625" y="71.9902573" width="13.9977818" height="13.9977818"></rect><polygon points="61.583931,57.9924736 47.5861511,57.9924736 47.5861511,71.9902573 47.5861511,85.9880371 61.583931,85.9880371    75.5817108,85.9880371 75.5817108,71.9902573 61.583931,71.9902573  "></polygon><polygon points="47.5861511,51.1383896 61.583931,51.1383896 61.583931,23.1428261 61.583931,19.4744415 61.583931,9.1450434    47.5861511,9.1450434 47.5861511,19.4744415 47.5861511,23.1428261 33.5883675,23.1428261 33.5883675,37.1406059    47.5861511,37.1406059  "></polygon><polygon points="82.2105331,36.9958038 82.2105331,47.3251991 82.2105331,50.9935837 68.2127533,50.9935837 68.2127533,64.9913635    82.2105331,64.9913635 82.2105331,78.9891434 96.208313,78.9891434 96.208313,50.9935837 96.208313,47.3251991    96.208313,36.9958038  "></polygon><polygon points="26.6699409,43.9946938 12.7056732,43.9946938 12.7056732,57.9924736 26.6699409,57.9924736 26.6699409,71.9902573    26.6699409,85.9880371 40.6677208,85.9880371 40.6677208,71.9902573 40.6677208,57.9924736 40.6677208,43.9946938    26.703455,43.9946938  "></polygon></g></g><g id="SvgjsG1008" featurekey="nameFeature-0" transform="matrix(1.1793357927508197,0,0,1.1793357927508197,-2.7640120291469352,77.88020445364612)" fill="#be3144"><path d="M4.2773 40 q-0.80078125 0 -1.3671875 -0.56640625 t-0.56641 -1.3672 l0 -12.07 q0 -0.80078125 0.56640625 -1.376953125 t1.3672 -0.57617 l10.469 0 q1.9140625 0 3.0078125 -1.2109375 q1.015625 -1.23046875 1.015625 -2.87109375 q0 -0.76171875 -0.3515625 -1.728515625 t-1.2207 -1.6699 t-2.4512 -0.70313 l-2.2461 0 q-0.80078125 0 -1.376953125 -0.56640625 t-0.57617 -1.3672 t0.57617 -1.3672 t1.377 -0.56641 l2.2461 0 q2.59765625 0 4.35546875 1.162109375 t2.6465 2.9883 t0.88867 3.8184 q0 3.06640625 -1.97265625 5.4296875 q-0.5078125 0.5859375 -1.30859375 1.171875 t-1.9434 0.97656 t-2.666 0.39063 l-8.5156 0 l0 10.137 q0 0.80078125 -0.56640625 1.3671875 t-1.3867 0.56641 z M4.2773 15.859000000000002 q-0.80078125 0 -1.3671875 -0.56640625 t-0.56641 -1.3672 t0.56641 -1.3672 t1.3672 -0.56641 q0.8203125 0 1.38671875 0.56640625 t0.56641 1.3672 t-0.56641 1.3672 t-1.3867 0.56641 z M42.767265625 40 q-1.97265625 0 -3.857421875 -0.673828125 t-3.3887 -1.9922 t-2.4023 -3.2715 t-0.89844 -4.5313 l0 -15.605 q0 -0.80078125 0.56640625 -1.3671875 t1.3672 -0.56641 t1.3672 0.56641 t0.56641 1.3672 l0 15.605 q0 2.28515625 0.9765625 3.740234375 t2.5098 2.1484 t3.1934 0.69336 t3.1836 -0.69336 t2.5 -2.1484 t0.97656 -3.7402 l0 -7.4023 q0 -0.80078125 0.56640625 -1.3671875 t1.3672 -0.56641 t1.3672 0.56641 t0.56641 1.3672 l0 7.4023 q0 4.82421875 -3.33984375 7.8515625 q-3.10546875 2.6171875 -7.1875 2.6171875 z M51.361265625 15.859000000000002 q-0.80078125 0 -1.3671875 -0.56640625 t-0.56641 -1.3672 t0.56641 -1.3672 t1.3672 -0.56641 t1.3672 0.56641 t0.56641 1.3672 t-0.56641 1.3672 t-1.3672 0.56641 z M81.47278125 40 l-14.375 0 q-1.11328125 0 -2.001953125 -0.5859375 t-1.377 -1.6016 q-0.37109375 -0.83984375 -0.37109375 -1.62109375 q0 -1.25 0.8984375 -2.36328125 l15.098 -17.988 l-6.6016 0 q-0.80078125 0 -1.3671875 -0.556640625 t-0.56641 -1.377 q0 -0.80078125 0.56640625 -1.3671875 t1.3672 -0.56641 l6.8555 0 q1.09375 0 2.001953125 0.5859375 t1.3965 1.6016 q0.3515625 0.8203125 0.3515625 1.62109375 q0 1.25 -0.87890625 2.36328125 l-15.098 17.969 l14.102 0 q0.80078125 0 1.3671875 0.576171875 t0.56641 1.377 q0 0.78125 -0.56640625 1.357421875 t-1.3672 0.57617 z M65.22268125 15.859000000000002 q-0.80078125 0 -1.376953125 -0.56640625 t-0.57617 -1.3672 t0.57617 -1.3672 t1.377 -0.56641 t1.3672 0.56641 t0.56641 1.3672 t-0.56641 1.3672 t-1.3672 0.56641 z M111.779421875 40 l-14.375 0 q-1.11328125 0 -2.001953125 -0.5859375 t-1.377 -1.6016 q-0.37109375 -0.83984375 -0.37109375 -1.62109375 q0 -1.25 0.8984375 -2.36328125 l15.098 -17.988 l-6.6016 0 q-0.80078125 0 -1.3671875 -0.556640625 t-0.56641 -1.377 q0 -0.80078125 0.56640625 -1.3671875 t1.3672 -0.56641 l6.8555 0 q1.09375 0 2.001953125 0.5859375 t1.3965 1.6016 q0.3515625 0.8203125 0.3515625 1.62109375 q0 1.25 -0.87890625 2.36328125 l-15.098 17.969 l14.102 0 q0.80078125 0 1.3671875 0.576171875 t0.56641 1.377 q0 0.78125 -0.56640625 1.357421875 t-1.3672 0.57617 z M95.529321875 15.859000000000002 q-0.80078125 0 -1.376953125 -0.56640625 t-0.57617 -1.3672 t0.57617 -1.3672 t1.377 -0.56641 t1.3672 0.56641 t0.56641 1.3672 t-0.56641 1.3672 t-1.3672 0.56641 z M139.9180625 40 q0.80078125 0 1.3671875 -0.56640625 t0.56641 -1.3672 q0 -0.8203125 -0.56640625 -1.38671875 t-1.3672 -0.56641 l-7.8906 0 q-4.43359375 0 -4.47265625 -6.38671875 l0 -15.801 q0 -0.80078125 -0.56640625 -1.3671875 t-1.3672 -0.56641 t-1.3672 0.56641 t-0.56641 1.3672 l0 15.801 q0 4.296875 1.81640625 6.97265625 q2.32421875 3.30078125 6.5234375 3.30078125 l7.8906 0 z M169.170421875 40 l-15.41 0 q-0.80078125 0 -1.3671875 -0.56640625 t-0.56641 -1.3672 q0 -0.8203125 0.56640625 -1.38671875 t1.3672 -0.56641 l15.41 0 q0.80078125 0 1.3671875 0.56640625 t0.56641 1.3867 q0 0.80078125 -0.56640625 1.3671875 t-1.3672 0.56641 z M169.170421875 15.859000000000002 l-15.41 0 q-0.80078125 0 -1.3671875 -0.56640625 t-0.56641 -1.3672 t0.56641 -1.3672 t1.3672 -0.56641 l15.41 0 q0.80078125 0 1.3671875 0.56640625 t0.56641 1.3672 t-0.56641 1.3672 t-1.3672 0.56641 z M169.170421875 27.93 l-15.41 0 q-0.80078125 0 -1.3671875 -0.56640625 t-0.56641 -1.3672 t0.56641 -1.377 t1.3672 -0.57617 l15.41 0 q0.80078125 0 1.3671875 0.576171875 t0.56641 1.377 t-0.56641 1.3672 t-1.3672 0.56641 z M196.72275 40 q0.80078125 0 1.3671875 -0.56640625 t0.56641 -1.3672 q0 -0.8203125 -0.56640625 -1.38671875 t-1.3672 -0.56641 l-7.8906 0 q-4.43359375 0 -4.47265625 -6.38671875 l0 -15.801 q0 -0.80078125 -0.56640625 -1.3671875 t-1.3672 -0.56641 t-1.3672 0.56641 t-0.56641 1.3672 l0 15.801 q0 4.296875 1.81640625 6.97265625 q2.32421875 3.30078125 6.5234375 3.30078125 l7.8906 0 z M210.564409375 40 q0.80078125 0 1.3671875 -0.56640625 t0.56641 -1.3672 l0 -24.141 q0 -0.80078125 -0.56640625 -1.3671875 t-1.3672 -0.56641 t-1.3672 0.56641 t-0.56641 1.3672 l0 24.141 q0 0.80078125 0.56640625 1.3671875 t1.3672 0.56641 z M232.23821875 40 q-1.4453125 0 -2.890625 -0.29296875 q-3.76953125 -0.8203125 -5.95703125 -3.18359375 q-0.5078125 -0.56640625 -0.5078125 -1.26953125 q0 -0.05859375 0.01953125 -0.478515625 t0.60547 -0.98633 q0.60546875 -0.5078125 1.34765625 -0.5078125 q0.01953125 0 0.4296875 0.029296875 t0.95703 0.61523 q1.4453125 1.46484375 3.90625 1.97265625 q1.0546875 0.21484375 2.0703125 0.21484375 q1.38671875 0 2.734375 -0.41015625 q2.94921875 -0.95703125 2.94921875 -3.6328125 q0 -1.38671875 -1.240234375 -2.216796875 t-4.7754 -1.7285 q-1.640625 -0.41015625 -3.2421875 -0.9375 q-5.9765625 -1.9921875 -5.9765625 -7.1875 q0 -3.90625 3.046875 -6.1328125 q2.6171875 -1.89453125 6.6796875 -1.89453125 q0.8203125 0.05859375 1.3671875 0.615234375 t0.54688 1.377 q-0.01953125 0.8203125 -0.576171875 1.34765625 t-1.377 0.52734 l-0.21484 0 q-1.875 0 -3.564453125 0.80078125 t-2.0215 2.793 l-0.019531 0.54688 q0 1.69921875 1.416015625 2.626953125 t4.9316 1.7871 q1.58203125 0.390625 3.10546875 0.8984375 q5.78125 1.9140625 5.78125 6.7578125 q0 0.4296875 -0.0390625 0.87890625 q-0.60546875 4.70703125 -5.56640625 6.46484375 q-1.875 0.60546875 -3.92578125 0.60546875 z M239.54321875 18.613 q-0.80078125 0 -1.3671875 -0.56640625 t-0.56641 -1.3672 t0.56641 -1.3672 t1.3672 -0.56641 q0.8203125 0 1.38671875 0.56640625 t0.56641 1.3672 t-0.56641 1.3672 t-1.3867 0.56641 z M260.884703125 40 q-0.80078125 0 -1.3671875 -0.56640625 t-0.56641 -1.3672 l0 -24.141 q0 -0.80078125 0.56640625 -1.3671875 t1.3672 -0.56641 l8.3984 0 q0.80078125 0 1.3671875 0.56640625 t0.56641 1.3672 t-0.56641 1.3672 t-1.3672 0.56641 l-6.4648 0 l0 22.207 q0 0.80078125 -0.56640625 1.3671875 t-1.3672 0.56641 z M252.505903125 15.859000000000002 q-0.80078125 0 -1.3671875 -0.56640625 t-0.56641 -1.3672 t0.56641 -1.3672 t1.3672 -0.56641 t1.3672 0.56641 t0.56641 1.3672 t-0.56641 1.3672 t-1.3672 0.56641 z M289.58978125 40 q-1.4453125 0 -2.890625 -0.29296875 q-3.76953125 -0.8203125 -5.95703125 -3.18359375 q-0.5078125 -0.56640625 -0.5078125 -1.26953125 q0 -0.05859375 0.01953125 -0.478515625 t0.60547 -0.98633 q0.60546875 -0.5078125 1.34765625 -0.5078125 q0.01953125 0 0.4296875 0.029296875 t0.95703 0.61523 q1.4453125 1.46484375 3.90625 1.97265625 q1.0546875 0.21484375 2.0703125 0.21484375 q1.38671875 0 2.734375 -0.41015625 q2.94921875 -0.95703125 2.94921875 -3.6328125 q0 -1.38671875 -1.240234375 -2.216796875 t-4.7754 -1.7285 q-1.640625 -0.41015625 -3.2421875 -0.9375 q-5.9765625 -1.9921875 -5.9765625 -7.1875 q0 -3.90625 3.046875 -6.1328125 q2.6171875 -1.89453125 6.6796875 -1.89453125 q0.8203125 0.05859375 1.3671875 0.615234375 t0.54688 1.377 q-0.01953125 0.8203125 -0.576171875 1.34765625 t-1.377 0.52734 l-0.21484 0 q-1.875 0 -3.564453125 0.80078125 t-2.0215 2.793 l-0.019531 0.54688 q0 1.69921875 1.416015625 2.626953125 t4.9316 1.7871 q1.58203125 0.390625 3.10546875 0.8984375 q5.78125 1.9140625 5.78125 6.7578125 q0 0.4296875 -0.0390625 0.87890625 q-0.60546875 4.70703125 -5.56640625 6.46484375 q-1.875 0.60546875 -3.92578125 0.60546875 z M296.89478125 18.613 q-0.80078125 0 -1.3671875 -0.56640625 t-0.56641 -1.3672 t0.56641 -1.3672 t1.3672 -0.56641 q0.8203125 0 1.38671875 0.56640625 t0.56641 1.3672 t-0.56641 1.3672 t-1.3867 0.56641 z"></path></g></svg>